<?xml version="1.0" encoding="UTF-8"?>
<svg width="30px" height="43px" viewBox="0 0 30 43" version="1.1" xmlns="http://www.w3.org/2000/svg" xmlns:xlink="http://www.w3.org/1999/xlink">
    <title>FF8CFAF2-8B83-4B03-BD1F-69FD6FE82565</title>
    <defs>
        <linearGradient x1="36.1612448%" y1="20.7612708%" x2="50%" y2="100%" id="linearGradient-1">
            <stop stop-color="#0099FF" offset="0%"></stop>
            <stop stop-color="#09083E" offset="100%"></stop>
        </linearGradient>
    </defs>
    <g id="GFS_grafika_final" stroke="none" stroke-width="1" fill="none" fill-rule="evenodd">
        <g id="Služby-grafika" transform="translate(-705.000000, -2253.000000)" fill="url(#linearGradient-1)">
            <g id="Výpis-služeb" transform="translate(0.000000, 679.000000)">
                <path d="M721.752035,1574.34296 C723.969423,1575.57748 726.194929,1576.79763 728.422309,1578.01467 C729.559415,1578.63599 730.697146,1579.25606 731.851112,1579.84366 C733.343525,1580.6036 734.223987,1581.77443 734.357617,1583.45979 C734.60552,1586.58949 734.840934,1589.72043 735.000166,1591.7967 C734.970193,1595.60017 735.044502,1598.34458 734.299544,1601.02718 C733.75753,1602.97793 732.868951,1604.73011 731.555128,1606.2831 C729.421414,1608.80459 727.073517,1611.09566 724.480216,1613.14195 C723.778969,1613.69521 723.1027,1614.29529 722.489499,1614.94471 C721.158192,1616.35407 719.816269,1616.43026 718.35258,1615.15327 C717.00129,1613.97433 715.643757,1612.80101 714.248132,1611.67514 C713.201569,1610.83027 712.122536,1610.01725 711.002914,1609.27354 C707.464833,1606.92252 705.781342,1603.51433 705.215598,1599.418 C704.754137,1596.07474 705.153779,1592.7446 705.307391,1589.41258 C705.410424,1587.17209 705.700789,1584.94034 705.800075,1582.70047 C705.85003,1581.57648 706.322107,1580.93393 707.35743,1580.6292 L708.497658,1580.2739 L708.497658,1580.2739 C712.558396,1579.07872 716.268822,1577.20102 719.604583,1574.58836 C720.538122,1573.85714 720.859709,1573.8459 721.752035,1574.34296 Z M720.409487,1576.03207 C716.887018,1578.85142 712.915576,1581.16747 708.398372,1582.32518 C708.237267,1587.16772 708.033699,1591.85102 707.95377,1596.53683 C707.929417,1597.96742 708.180442,1599.41425 708.418354,1600.83485 C708.806132,1603.15402 710.043773,1604.96927 711.897737,1606.40486 C713.868472,1607.93099 715.792373,1609.51832 717.758112,1611.05195 C718.610474,1611.71698 719.515288,1612.31457 720.371396,1612.92465 C721.857565,1611.73758 723.200737,1610.62983 724.581999,1609.57078 C726.578336,1608.03965 728.200008,1606.14947 729.811065,1604.24305 C731.35718,1602.41469 732.097142,1600.27847 732.182066,1597.92184 C732.253252,1595.92925 732.271361,1593.93166 732.217035,1591.93907 C732.129613,1588.70447 731.964136,1585.47174 731.826759,1582.12224 C728.091356,1580.12965 724.321608,1578.11895 720.409487,1576.03207 Z M725.608008,1584.04675 C726.746109,1584.09312 727.546392,1584.66217 727.827606,1585.76594 C728.229253,1587.34363 728.638126,1588.93035 728.871768,1590.53874 C729.295093,1593.45505 729.264985,1596.38521 728.732667,1599.29429 C728.638728,1599.80975 728.473734,1600.31798 728.290072,1600.81055 C727.850488,1601.989 726.99902,1602.75376 725.749518,1602.88684 C722.886802,1603.19033 720.01927,1603.50767 717.145715,1603.63232 C715.97871,1603.6823 714.754499,1603.35653 713.626033,1602.9868 C713.003991,1602.78326 712.322335,1602.2383 712.031487,1601.66262 C711.54373,1600.69855 711.233612,1599.60561 711.057176,1598.53255 C710.857858,1597.32098 711.152319,1597.03495 712.3404,1596.70496 C712.561999,1596.64354 712.781189,1596.57369 712.882955,1596.54298 C712.796845,1595.06886 712.718563,1593.6905 712.634861,1592.31273 C712.539116,1590.72963 712.406639,1589.14713 712.347626,1587.56222 C712.282592,1585.79726 712.810093,1585.04635 714.547955,1584.74466 C718.20433,1584.11118 721.898039,1583.8944 725.608008,1584.04675 Z M723.723216,1597.80874 C719.942794,1597.79007 716.377949,1598.88421 712.598129,1598.2977 C712.704713,1598.74872 712.770952,1599.0203 712.832975,1599.29248 C713.168384,1600.75937 714.022863,1601.48739 715.567428,1601.80353 C718.408465,1602.38463 721.214577,1602.09558 724.036947,1601.88844 C724.339236,1601.86616 724.626471,1601.64697 725.055216,1601.4609 C724.576491,1600.14817 724.124261,1598.9083 723.723216,1597.80874 Z M714.572042,1587.40926 C714.886976,1590.48695 715.309097,1593.43157 714.853857,1596.56164 C715.776983,1596.48637 716.627247,1596.42254 717.476307,1596.34667 C719.102767,1596.20275 720.726819,1596.01548 722.356893,1595.91612 C723.490779,1595.84687 724.606599,1596.16903 725.466498,1596.86092 C725.963288,1597.26016 726.130691,1598.06827 726.451045,1598.68971 C726.46911,1598.72404 726.534747,1598.73307 726.679268,1598.80172 C727.516284,1594.42695 726.956266,1590.19731 725.755539,1585.82977 C721.872146,1585.73463 718.239256,1586.503 714.572042,1587.40926 Z M721.182966,1592.44311 L721.652136,1592.512 C721.808559,1592.53529 721.964973,1592.5585 722.121264,1592.5804 C721.838659,1592.69948 721.556842,1592.83054 721.274742,1592.95902 L720.936017,1593.11103 C719.693025,1593.65701 718.436255,1594.04035 717.074479,1593.02119 C718.378122,1592.13633 719.776091,1592.2431 721.182966,1592.44311 Z M722.764381,1589.45977 C721.588344,1590.72252 720.16361,1591.11454 718.569064,1591.03144 C718.284238,1591.01698 717.989175,1590.99952 717.720607,1590.91582 C717.230441,1590.76287 716.859504,1590.45877 716.901656,1589.88671 C716.943206,1589.3279 717.308121,1589.03344 717.839836,1588.97442 C717.990379,1588.95756 718.141101,1588.93886 718.29192,1588.91959 L718.74459,1588.86139 C720.10299,1588.68948 721.462709,1588.57639 722.764381,1589.45977 Z" id="pravni_ochrana"></path>
            </g>
        </g>
    </g>
</svg>