<?xml version="1.0" encoding="UTF-8"?>
<svg width="40px" height="38px" viewBox="0 0 40 38" version="1.1" xmlns="http://www.w3.org/2000/svg" xmlns:xlink="http://www.w3.org/1999/xlink">
    <title>AC98B5AA-96AB-4AB1-8A98-B426ED622E2E</title>
    <defs>
        <linearGradient x1="22.7998232%" y1="24.404885%" x2="50%" y2="93.7691988%" id="linearGradient-1">
            <stop stop-color="#0099FF" offset="0%"></stop>
            <stop stop-color="#09083E" offset="100%"></stop>
        </linearGradient>
    </defs>
    <g id="GFS_grafika_final" stroke="none" stroke-width="1" fill="none" fill-rule="evenodd">
        <g id="Služby-grafika" transform="translate(-699.000000, -1163.000000)" fill="url(#linearGradient-1)">
            <g id="Výpis-služeb" transform="translate(0.000000, 679.000000)">
                <path d="M718.976857,484.933476 C721.62372,487.12356 724.198549,489.413041 726.959328,491.449562 C729.574362,493.379427 732.384839,495.044605 735.12049,496.809739 C735.490715,497.049297 735.910081,497.229105 736.32833,497.37485 C737.310574,497.718831 737.664606,498.426336 737.725472,499.423656 C738.132553,506.104474 738.571463,512.783616 738.982453,519.464991 C739.01149,519.944107 739.029918,520.500283 738.819397,520.895638 C738.621162,521.267539 738.117476,521.685788 737.739432,521.69485 C737.361389,521.703098 736.880598,521.298251 736.61647,520.946453 C736.402041,520.661105 736.401482,520.187574 736.375237,519.792778 C736.109434,515.831417 735.868759,511.868382 735.598489,507.907579 C735.434316,505.503624 735.191966,503.104137 735.066324,500.698506 C735.021651,499.841347 734.73407,499.251108 733.990826,498.862454 C733.873002,498.800471 733.765787,498.717826 733.650755,498.6497 C728.211841,495.450569 723.183918,491.676276 718.304531,487.693696 C718.133658,487.554652 717.94659,487.435152 717.658451,487.228541 C717.022422,487.707656 716.419339,488.098543 715.888849,488.5704 C711.580158,492.402209 706.79626,495.623118 702.26197,499.165113 C701.655537,499.638644 701.508675,500.178068 701.391409,500.859329 C700.883256,503.808292 701.380799,506.738827 701.504766,509.673272 C701.638226,512.845599 701.685691,516.008992 701.173071,519.155074 C700.996055,520.238389 700.691721,520.65608 700.138337,520.641561 C699.527995,520.625925 699.229246,520.104929 699.258841,518.962981 C699.334227,516.064274 699.54028,513.16501 699.496724,510.268537 C699.443117,506.747204 699.206909,503.228104 699.005882,499.710121 C698.951158,498.757473 699.270568,498.132054 700.059601,497.584254 L702.327188,496.012833 C706.48428,493.131473 710.625749,490.227847 714.507343,486.972789 C715.153982,486.431131 715.772142,485.839775 716.322176,485.201512 C717.320613,484.04337 717.823182,483.978594 718.976857,484.933476 Z M710.487885,509.550313 C711.191975,509.844118 711.400594,510.257445 711.354959,511.023686 C711.336704,511.326184 711.388425,511.632593 711.397552,511.937264 C711.412329,512.454031 711.513596,512.992095 711.40581,513.48322 C711.251084,514.187744 711.308889,514.837071 711.510119,515.510303 C712.136846,517.607795 710.832976,519.314996 708.654209,519.261537 C708.377354,519.254583 708.09963,519.225029 707.824948,519.185044 C706.291596,518.96382 705.811337,518.502685 705.53709,516.95021 C705.39888,516.167454 705.298917,515.377743 705.181568,514.591075 C705.2259,514.585859 705.270231,514.581078 705.314563,514.575863 C705.260235,513.889158 705.197649,513.202888 705.153752,512.515748 C705.062047,511.079752 705.530136,510.139227 706.53542,509.750674 C706.923104,509.601164 707.315569,509.439484 707.720638,509.364729 C708.652905,509.192618 709.592995,509.176537 710.487885,509.550313 Z M710.236673,516.983676 L706.586271,516.983676 C706.65103,517.593453 706.904415,517.955929 707.397713,518.018515 C708.00662,518.095443 708.633782,518.134124 709.242689,518.077189 C709.937652,518.01243 710.137144,517.722536 710.236673,516.983676 Z M710.080643,514.95442 L706.411987,514.95442 C706.266388,515.475099 706.501519,515.778466 706.985255,515.827143 C707.765839,515.905376 708.554246,515.961442 709.337002,515.939276 C709.822477,515.925368 710.158006,515.630694 710.080643,514.95442 Z M726.234288,501.158134 C727.248919,501.640042 728.222786,502.029812 729.413316,501.518867 C730.269917,501.150874 731.032705,501.624965 731.218656,502.578729 C731.59279,504.498542 731.912201,506.435667 732.09871,508.380609 C732.159018,509.005469 732.163485,509.554945 732.669963,509.959234 C732.062413,511.153114 731.082404,511.560195 729.910859,511.664059 C728.416554,511.796403 726.991492,511.441254 725.572572,511.055392 C724.576927,510.785122 723.599151,510.598055 722.551574,510.849339 C720.951171,511.233525 719.670737,511.988496 718.926376,513.517422 C718.752711,513.874805 718.554475,514.238888 718.292023,514.531495 C717.657669,515.236208 716.723449,515.059192 716.361599,514.194773 C716.310784,514.072482 716.278955,513.939022 716.260527,513.807795 C715.960103,511.648424 715.512258,509.496312 715.397784,507.326331 C715.181679,503.232068 717.009913,501.388199 721.423586,500.45342 C723.072012,500.104414 724.701453,500.429967 726.234288,501.158134 Z M710.244496,512.464462 C708.911941,513.123786 707.508542,512.806946 705.978233,512.655697 C706.129482,513.131175 706.246395,513.498431 706.358094,513.849173 C707.385109,513.953482 708.309987,514.06605 709.237908,514.137762 C710.502662,514.235118 710.819503,513.720524 710.244496,512.464462 Z M706.262042,511.564357 C707.794524,512.572249 709.694697,512.35146 710.219288,511.104961 C708.625958,510.219198 706.865734,510.423471 706.262042,511.564357 Z M718.890638,503.645292 C718.073126,504.30254 717.363945,504.873235 716.664816,505.434996 C717.0356,507.341966 717.389632,509.163499 717.778285,511.163724 C718.599148,510.531604 719.225126,510.049696 719.889634,509.538193 C719.568548,507.643507 719.246904,505.748822 718.890638,503.645292 Z M720.500534,503.091349 C720.575361,505.113352 720.649071,507.099616 720.72334,509.106542 C720.858475,509.095932 720.998636,509.116035 721.113668,509.070803 C722.993276,508.332585 724.861158,508.507368 726.731831,509.113243 C727.196428,509.264013 727.673311,509.406966 728.155218,509.464482 C728.657787,509.524791 729.173758,509.477884 729.659575,509.477884 C729.354683,507.5899 729.067102,505.808572 728.815817,504.256751 C727.457206,503.868097 726.296272,503.5861 725.1694,503.202473 C723.613112,502.673658 722.075809,502.423491 720.500534,503.091349 Z" id="hypoteka_bydleni"></path>
            </g>
        </g>
    </g>
</svg>