<?xml version="1.0" encoding="UTF-8"?>
<svg width="34px" height="46px" viewBox="0 0 34 46" version="1.1" xmlns="http://www.w3.org/2000/svg" xmlns:xlink="http://www.w3.org/1999/xlink">
    <title>108AFF95-6F6E-44AD-8EA2-A4C27D5B03A4</title>
    <defs>
        <linearGradient x1="35.3343074%" y1="20.7612708%" x2="50%" y2="100%" id="linearGradient-1">
            <stop stop-color="#0099FF" offset="0%"></stop>
            <stop stop-color="#09083E" offset="100%"></stop>
        </linearGradient>
    </defs>
    <g id="GFS_grafika_final" stroke="none" stroke-width="1" fill="none" fill-rule="evenodd">
        <g id="Služby-grafika" transform="translate(-705.000000, -2072.000000)" fill="url(#linearGradient-1)">
            <g id="Výpis-služeb" transform="translate(0.000000, 679.000000)">
                <path d="M723.096571,1435.44938 C726.248137,1435.74937 729.431387,1435.71566 732.599132,1435.86667 C733.234838,1435.897 733.880656,1436.03318 734.490745,1436.22059 C735.04623,1436.39182 735.470259,1436.86169 735.254537,1437.44279 C735.113643,1437.82165 734.660627,1438.15669 734.267608,1438.34612 C733.960204,1438.49443 733.528759,1438.41151 733.15529,1438.39264 C730.152034,1438.23961 727.149451,1438.07782 723.701941,1437.89513 C720.320496,1438.15467 716.519741,1438.4587 712.71629,1438.73038 C711.537908,1438.81464 710.353458,1438.84094 709.171705,1438.82948 C708.761833,1438.82543 708.302749,1438.7115 707.955572,1438.5005 C707.218746,1438.05153 707.19987,1437.10235 707.915798,1436.62911 C708.258257,1436.4026 708.704532,1436.27991 709.119123,1436.2253 C713.757823,1435.61993 718.382367,1435.00108 723.096571,1435.44938 Z M715.407551,1421.50748 C715.590241,1421.8196 715.697428,1422.2079 715.729786,1422.57126 C715.956294,1425.08307 716.203027,1427.59556 716.329089,1430.11277 C716.364144,1430.82398 716.133591,1431.60732 715.824165,1432.26258 C715.284859,1433.40456 714.459722,1433.42074 713.826712,1432.29628 C713.470771,1431.66395 713.238869,1430.90488 713.169434,1430.18153 C713.062247,1429.06382 713.14112,1427.92791 713.14112,1426.80009 C713.100672,1426.79874 713.060898,1426.79807 713.020451,1426.79672 C713.100672,1425.45789 713.16067,1424.11704 713.271902,1422.78024 C713.306957,1422.36026 713.410099,1421.91466 713.604923,1421.54591 C714.020188,1420.75717 714.957231,1420.74099 715.407551,1421.50748 Z M721.747019,1422.57025 C722.127229,1424.95937 722.505417,1427.35254 722.750801,1429.75784 C722.829,1430.52433 722.590357,1431.36902 722.318682,1432.11326 C721.992403,1433.00985 721.08637,1433.07996 720.607736,1432.25752 C720.263255,1431.66563 719.995624,1430.98004 719.891134,1430.30591 C719.669345,1428.87338 719.577663,1427.42063 719.465757,1426.31168 C719.543956,1424.89061 719.562832,1423.81133 719.678108,1422.74215 C719.740128,1422.16914 719.852708,1421.49096 720.622567,1421.42692 C721.395122,1421.36288 721.654663,1421.99252 721.747019,1422.57025 Z M728.177494,1422.04751 C728.883984,1422.04416 729.243296,1422.53695 729.436772,1423.1167 C730.274044,1425.62784 730.837618,1428.1855 730.574032,1430.86113 C730.553134,1431.07348 730.520102,1431.28853 730.462127,1431.49346 C730.275392,1432.14939 729.962595,1432.69342 729.191388,1432.7615 C728.51456,1432.82083 728.04469,1432.46556 727.76897,1431.90333 C727.463588,1431.28111 727.142702,1430.63664 727.007875,1429.96588 C726.765188,1428.76121 726.656653,1427.52889 726.488794,1426.2804 C726.611486,1425.27594 726.678225,1424.25666 726.879116,1423.26433 C727.009898,1422.61919 727.387412,1422.05157 728.177494,1422.04751 Z M723.681256,1409.40901 C724.737621,1409.80135 725.833759,1410.13909 726.812598,1410.68109 C729.867089,1412.37384 732.889896,1414.12658 735.891805,1415.91101 C737.011537,1416.57705 737.948581,1417.49724 738.4771,1418.72146 C739.046741,1420.04141 738.222952,1421.2562 736.241679,1421.30878 C735.531144,1420.98722 734.31164,1420.56117 733.225613,1419.91198 C731.751287,1419.03089 730.429315,1417.89498 728.952292,1417.02063 C726.735073,1415.70809 724.434261,1414.53848 722.181987,1413.28392 C721.491676,1412.89966 720.938214,1412.92326 720.283632,1413.42818 C717.219029,1415.79101 714.114653,1418.10261 711.03387,1420.44522 C710.263338,1421.03104 709.548084,1421.68967 708.77081,1422.26537 C708.167462,1422.71097 707.529059,1423.12085 706.865714,1423.46937 C706.34461,1423.74374 705.689354,1424.00666 705.222855,1423.47072 C704.740176,1422.91659 705.13724,1422.34762 705.512057,1421.87707 C705.91384,1421.3735 706.323712,1420.8652 706.79493,1420.42904 C708.92586,1418.45855 711.066903,1416.49885 713.228843,1414.56274 C714.670811,1413.27178 716.200416,1412.07587 717.605307,1410.74716 C719.389059,1409.06048 721.375726,1408.55286 723.681256,1409.40901 Z M709.776075,1400.99219 C710.405173,1401.25471 710.591572,1401.62401 710.550797,1402.30864 C710.534487,1402.57892 710.580699,1402.85269 710.588853,1403.12491 C710.602057,1403.58664 710.692538,1404.06739 710.596232,1404.50621 C710.457986,1405.13569 710.509634,1405.71586 710.689431,1406.31739 C711.249406,1408.19148 710.08441,1409.71685 708.137703,1409.66908 C707.890336,1409.66287 707.642192,1409.63646 707.396766,1409.60073 C706.026731,1409.40307 705.597624,1408.99105 705.352587,1407.60393 L705.238648,1406.90281 L705.238648,1406.90281 L705.034932,1405.49607 L705.034932,1405.49607 C705.074542,1405.49141 705.114151,1405.48713 705.153761,1405.48247 C705.10522,1404.86891 705.0493,1404.25573 705.010078,1403.64178 C704.92814,1402.35873 705.346374,1401.51838 706.244585,1401.17121 C706.590977,1401.03763 706.941641,1400.89317 707.303566,1400.82638 C708.136538,1400.6726 708.9765,1400.65823 709.776075,1400.99219 Z M709.551619,1407.63383 L706.29002,1407.63383 C706.347882,1408.17866 706.574279,1408.50253 707.015036,1408.55845 C707.559089,1408.62719 708.119451,1408.66175 708.663504,1408.61088 C709.284447,1408.55301 709.462691,1408.294 709.551619,1407.63383 Z M723.799122,1393.81876 C724.781937,1394.28555 725.725265,1394.6631 726.878463,1394.16818 C727.708203,1393.81172 728.447071,1394.27095 728.627191,1395.1948 C728.989594,1397.05442 729.298988,1398.9308 729.479648,1400.81475 C729.538066,1401.42002 729.542393,1401.95226 730.032989,1402.34387 C729.44449,1403.50031 728.495211,1403.89463 727.360404,1403.99524 C725.912958,1404.12343 724.532582,1403.77942 723.158157,1403.40566 C722.193733,1403.14386 721.246618,1402.96266 720.231891,1403.20607 C718.681673,1403.5782 717.44139,1404.3095 716.720371,1405.79048 C716.552152,1406.13666 716.360132,1406.48933 716.10591,1406.77276 C715.491448,1407.45537 714.586523,1407.28391 714.23602,1406.44659 C714.186798,1406.32814 714.155967,1406.19886 714.138117,1406.07175 C713.847114,1403.98009 713.413312,1401.89547 713.302428,1399.79353 C713.0931,1395.82766 714.864005,1394.04161 719.139274,1393.13614 C720.736009,1392.79808 722.314354,1393.11342 723.799122,1393.81876 Z M709.412208,1405.82071 L706.134299,1405.82071 C706.004208,1406.28593 706.214295,1406.55699 706.646509,1406.60048 C707.343953,1406.67038 708.048387,1406.72048 708.747772,1406.70067 C709.181539,1406.68825 709.481331,1406.42496 709.412208,1405.82071 Z M709.558609,1403.59596 C708.367984,1404.18506 707.11406,1403.90196 705.746744,1403.76682 C705.881883,1404.19166 705.986345,1404.5198 706.086146,1404.83318 C707.003774,1404.92638 707.830144,1405.02696 708.659233,1405.09104 C709.789278,1405.17802 710.072372,1404.71824 709.558609,1403.59596 Z M716.685754,1396.22792 C715.893877,1396.86456 715.206935,1397.41736 714.529729,1397.9615 C714.888886,1399.80868 715.231816,1401.57309 715.608282,1403.51059 C716.403404,1402.89829 717.009753,1402.4315 717.653423,1401.93603 C717.342406,1400.10076 717.030848,1398.26549 716.685754,1396.22792 Z M706.000325,1402.79172 C707.369583,1403.69227 709.067369,1403.49499 709.536086,1402.38126 C708.112461,1401.58984 706.539718,1401.77235 706.000325,1402.79172 Z M718.245167,1395.69135 C718.317648,1397.64995 718.389046,1399.57393 718.460986,1401.51792 C718.591884,1401.50764 718.727649,1401.52711 718.839075,1401.4833 C720.659742,1400.76823 722.469051,1400.93753 724.281064,1401.52441 C724.731092,1401.67045 725.19302,1401.80892 725.659817,1401.86463 C726.146626,1401.92305 726.646417,1401.87762 727.117,1401.87762 C726.821669,1400.04884 726.543105,1398.32337 726.299701,1396.82021 C724.983692,1396.44374 723.859162,1396.17059 722.767627,1395.79899 C721.26014,1395.28676 719.771044,1395.04443 718.245167,1395.69135 Z" id="pujcka"></path>
            </g>
        </g>
    </g>
</svg>