<?xml version="1.0" encoding="UTF-8"?>
<svg width="31px" height="40px" viewBox="0 0 31 40" version="1.1" xmlns="http://www.w3.org/2000/svg" xmlns:xlink="http://www.w3.org/1999/xlink">
    <title>D542A444-C8BA-48A7-ABCB-D53440968BA6</title>
    <defs>
        <linearGradient x1="33.2124287%" y1="20.7612708%" x2="50%" y2="100%" id="linearGradient-1">
            <stop stop-color="#0099FF" offset="0%"></stop>
            <stop stop-color="#09083E" offset="100%"></stop>
        </linearGradient>
    </defs>
    <g id="GFS_grafika_final" stroke="none" stroke-width="1" fill="none" fill-rule="evenodd">
        <g id="Služby-grafika" transform="translate(-705.000000, -1894.000000)" fill="url(#linearGradient-1)">
            <g id="Výpis-služeb" transform="translate(0.000000, 679.000000)">
                <path d="M715.211515,1246.88265 C718.712352,1247.16544 719.956809,1248.20495 719.743981,1250.6643 C719.544946,1252.94729 717.673826,1254.45975 715.332709,1254.2282 C713.121654,1254.01044 711.822019,1252.41817 712.02598,1250.17854 C712.219102,1248.06208 713.493119,1246.74372 715.211515,1246.88265 Z M725.816007,1246.02355 C726.89296,1246.11321 727.997502,1246.27776 729.008439,1246.63642 C730.121849,1247.03153 730.715996,1247.9735 730.75738,1249.48399 C730.691363,1251.16593 729.520805,1252.35422 727.886161,1253.16317 C726.304725,1253.9465 724.737083,1253.72283 723.542877,1252.53256 C722.341773,1251.3354 721.867835,1249.90373 722.444246,1248.23263 C723.020658,1246.56449 723.997109,1245.8728 725.816007,1246.02355 Z M716.129832,1248.5232 C714.57697,1249.96177 714.29911,1250.60715 714.891286,1251.30377 C715.426314,1251.93241 716.104214,1252.00335 716.788025,1251.5905 C717.645252,1251.07222 717.506322,1250.42191 716.129832,1248.5232 Z M726.685058,1248.28978 C725.848522,1248.86422 725.60909,1249.41502 726.271224,1250.31166 C727.391531,1249.81013 727.425032,1249.21303 726.685058,1248.28978 Z M727.051596,1236.74116 C727.757084,1239.34437 728.413307,1240.91694 731.643181,1241.06966 C734.889806,1241.22239 736.698851,1245.18731 735.426805,1248.27136 C734.077903,1248.14819 733.405916,1247.17568 732.991097,1246.08395 C732.260976,1244.16159 731.160375,1243.17135 728.915819,1243.396 C726.974741,1243.59011 725.697768,1242.32299 725.013957,1240.56124 C724.617859,1239.53946 724.424737,1238.43886 724.022727,1237.42004 C723.102439,1235.09174 721.18895,1234.31333 718.885275,1235.22377 C716.798371,1236.04848 715.673137,1237.68411 715.105593,1239.74539 C714.794233,1240.87753 714.674024,1242.06188 714.410944,1243.20879 C714.192203,1244.16061 713.82665,1245.11834 712.629487,1245.05725 C711.4944,1244.99897 711.033271,1245.64651 710.631192,1246.42093 L710.49851,1246.68298 L710.432227,1246.81604 L710.432227,1246.81604 C709.65284,1248.37777 709.639045,1248.37087 707.96893,1249.34338 C705.789406,1245.92925 707.558053,1242.46783 711.856998,1241.48744 C712.108254,1240.37009 712.29645,1239.21037 712.633429,1238.09696 C713.494597,1235.25628 715.437646,1233.42753 718.197523,1232.44418 C721.96144,1231.10317 726.005188,1232.87378 727.051596,1236.74116 Z M709.776075,1222.99219 C710.405173,1223.25471 710.591572,1223.62401 710.550797,1224.30864 C710.534487,1224.57892 710.580699,1224.85269 710.588853,1225.12491 C710.602057,1225.58664 710.692538,1226.06739 710.596232,1226.50621 C710.457986,1227.13569 710.509634,1227.71586 710.689431,1228.31739 C711.249406,1230.19148 710.08441,1231.71685 708.137703,1231.66908 C707.890336,1231.66287 707.642192,1231.63646 707.396766,1231.60073 C706.026731,1231.40307 705.597624,1230.99105 705.352587,1229.60393 L705.238648,1228.90281 L705.238648,1228.90281 L705.034932,1227.49607 L705.034932,1227.49607 C705.074542,1227.49141 705.114151,1227.48713 705.153761,1227.48247 C705.10522,1226.86891 705.0493,1226.25573 705.010078,1225.64178 C704.92814,1224.35873 705.346374,1223.51838 706.244585,1223.17121 C706.590977,1223.03763 706.941641,1222.89317 707.303566,1222.82638 C708.136538,1222.6726 708.9765,1222.65823 709.776075,1222.99219 Z M709.551619,1229.63383 L706.29002,1229.63383 C706.347882,1230.17866 706.574279,1230.50253 707.015036,1230.55845 C707.559089,1230.62719 708.119451,1230.66175 708.663504,1230.61088 C709.284447,1230.55301 709.462691,1230.294 709.551619,1229.63383 Z M723.799122,1215.81876 C724.781937,1216.28555 725.725265,1216.6631 726.878463,1216.16818 C727.708203,1215.81172 728.447071,1216.27095 728.627191,1217.1948 C728.989594,1219.05442 729.298988,1220.9308 729.479648,1222.81475 C729.538066,1223.42002 729.542393,1223.95226 730.032989,1224.34387 C729.44449,1225.50031 728.495211,1225.89463 727.360404,1225.99524 C725.912958,1226.12343 724.532582,1225.77942 723.158157,1225.40566 C722.193733,1225.14386 721.246618,1224.96266 720.231891,1225.20607 C718.681673,1225.5782 717.44139,1226.3095 716.720371,1227.79048 C716.552152,1228.13666 716.360132,1228.48933 716.10591,1228.77276 C715.491448,1229.45537 714.586523,1229.28391 714.23602,1228.44659 C714.186798,1228.32814 714.155967,1228.19886 714.138117,1228.07175 C713.847114,1225.98009 713.413312,1223.89547 713.302428,1221.79353 C713.0931,1217.82766 714.864005,1216.04161 719.139274,1215.13614 C720.736009,1214.79808 722.314354,1215.11342 723.799122,1215.81876 Z M709.412208,1227.82071 L706.134299,1227.82071 C706.004208,1228.28593 706.214295,1228.55699 706.646509,1228.60048 C707.343953,1228.67038 708.048387,1228.72048 708.747772,1228.70067 C709.181539,1228.68825 709.481331,1228.42496 709.412208,1227.82071 Z M709.558609,1225.59596 C708.367984,1226.18506 707.11406,1225.90196 705.746744,1225.76682 C705.881883,1226.19166 705.986345,1226.5198 706.086146,1226.83318 C707.003774,1226.92638 707.830144,1227.02696 708.659233,1227.09104 C709.789278,1227.17802 710.072372,1226.71824 709.558609,1225.59596 Z M716.685754,1218.22792 C715.893877,1218.86456 715.206935,1219.41736 714.529729,1219.9615 C714.888886,1221.80868 715.231816,1223.57309 715.608282,1225.51059 C716.403404,1224.89829 717.009753,1224.4315 717.653423,1223.93603 C717.342406,1222.10076 717.030848,1220.26549 716.685754,1218.22792 Z M706.000325,1224.79172 C707.369583,1225.69227 709.067369,1225.49499 709.536086,1224.38126 C708.112461,1223.58984 706.539718,1223.77235 706.000325,1224.79172 Z M718.245167,1217.69135 C718.317648,1219.64995 718.389046,1221.57393 718.460986,1223.51792 C718.591884,1223.50764 718.727649,1223.52711 718.839075,1223.4833 C720.659742,1222.76823 722.469051,1222.93753 724.281064,1223.52441 C724.731092,1223.67045 725.19302,1223.80892 725.659817,1223.86463 C726.146626,1223.92305 726.646417,1223.87762 727.117,1223.87762 C726.821669,1222.04884 726.543105,1220.32337 726.299701,1218.82021 C724.983692,1218.44374 723.859162,1218.17059 722.767627,1217.79899 C721.26014,1217.28676 719.771044,1217.04443 718.245167,1217.69135 Z" id="financovani_vozidel"></path>
            </g>
        </g>
    </g>
</svg>