<?xml version="1.0" encoding="UTF-8"?>
<svg width="30px" height="43px" viewBox="0 0 30 43" version="1.1" xmlns="http://www.w3.org/2000/svg" xmlns:xlink="http://www.w3.org/1999/xlink">
    <title>0D3C8218-24A0-49E3-9A81-4B265D064B33</title>
    <defs>
        <linearGradient x1="36.1612448%" y1="20.7612708%" x2="50%" y2="100%" id="linearGradient-1">
            <stop stop-color="#0099FF" offset="0%"></stop>
            <stop stop-color="#09083E" offset="100%"></stop>
        </linearGradient>
    </defs>
    <g id="GFS_grafika_final" stroke="none" stroke-width="1" fill="none" fill-rule="evenodd">
        <g id="Služby-grafika" transform="translate(-705.000000, -1540.000000)" fill="url(#linearGradient-1)">
            <g id="Výpis-služeb" transform="translate(0.000000, 679.000000)">
                <path d="M721.752035,861.342958 C723.969423,862.577477 726.194929,863.797634 728.422309,865.014669 C729.559415,865.635988 730.697146,866.256057 731.851112,866.843656 C733.343525,867.6036 734.223987,868.774426 734.357617,870.459791 C734.60552,873.589488 734.840934,876.720433 735.000166,878.796698 C734.970193,882.600165 735.044502,885.344582 734.299544,888.027179 C733.75753,889.977931 732.868951,891.730112 731.555128,893.283095 C729.421414,895.804587 727.073517,898.095659 724.480216,900.141951 C723.778969,900.695205 723.1027,901.295293 722.489499,901.944711 C721.158192,903.354073 719.816269,903.430255 718.35258,902.153274 C717.00129,900.97433 715.643757,899.801006 714.248132,898.67514 C713.201569,897.830272 712.122536,897.01725 711.002914,896.273541 C707.464833,893.922523 705.781342,890.514326 705.215598,886.417995 C704.754137,883.07474 705.153779,879.744599 705.307391,876.412584 C705.410424,874.172091 705.700789,871.94034 705.800075,869.700471 C705.85003,868.576478 706.322107,867.933929 707.35743,867.629202 L708.497658,867.273895 L708.497658,867.273895 C712.558396,866.078716 716.268822,864.201023 719.604583,861.588364 C720.538122,860.857144 720.859709,860.845904 721.752035,861.342958 Z M720.409487,863.03207 C716.887018,865.85142 712.915576,868.16747 708.398372,869.325183 C708.237267,874.16772 708.033699,878.851024 707.95377,883.536826 C707.929417,884.96742 708.180442,886.414249 708.418354,887.834851 C708.806132,890.154023 710.043773,891.969272 711.897737,893.404861 C713.868472,894.930994 715.792373,896.518322 717.758112,898.051948 C718.610474,898.716977 719.515288,899.314567 720.371396,899.924646 C721.857565,898.737584 723.200737,897.629826 724.581999,896.570775 C726.578336,895.039647 728.200008,893.149465 729.811065,891.243048 C731.35718,889.414686 732.097142,887.278474 732.182066,884.921836 C732.253252,882.929246 732.271361,880.93166 732.217035,878.93907 C732.129613,875.704468 731.964136,872.471739 731.826759,869.122239 C728.091356,867.129649 724.321608,865.118951 720.409487,863.03207 Z M720.952861,889.131865 C722.630485,889.267378 723.226838,889.765519 723.124849,890.944059 C723.02947,892.03808 722.132817,892.762862 721.010938,892.651902 C719.951386,892.547552 719.328592,891.784524 719.426331,890.711278 C719.518877,889.697054 720.129394,889.065289 720.952861,889.131865 Z M726.034604,888.720179 C726.550688,888.763147 727.079992,888.841999 727.564439,889.01387 C728.097993,889.20321 728.382712,889.654606 728.402543,890.378445 C728.370908,891.184441 727.809969,891.75388 727.026636,892.141532 C726.268801,892.516908 725.517577,892.409726 724.945305,891.839343 C724.369728,891.265655 724.142614,890.57959 724.418834,889.778787 C724.695054,888.979401 725.162976,888.647937 726.034604,888.720179 Z M721.392925,889.91803 C720.648783,890.607401 720.51563,890.916673 720.799405,891.250498 C721.055794,891.551743 721.380648,891.585739 721.708335,891.3879 C722.119124,891.139538 722.052548,890.827905 721.392925,889.91803 Z M726.45106,889.806173 C726.050186,890.081449 725.935448,890.345393 726.252748,890.775069 C726.789606,890.534733 726.80566,890.248598 726.45106,889.806173 Z M726.626707,884.271995 C726.964782,885.519471 727.279248,886.273057 728.827025,886.346243 C730.38283,886.41943 731.249736,888.319447 730.640163,889.797343 C729.993761,889.738322 729.67174,889.272289 729.472956,888.749123 C729.123077,887.827917 728.595662,887.353385 727.520055,887.46104 C726.589878,887.554058 725.977944,886.946845 725.650257,886.102603 C725.460444,885.612961 725.367899,885.085546 725.175253,884.597321 C724.734245,883.48158 723.817288,883.108565 722.713352,883.544851 C721.713293,883.940059 721.174073,884.723863 720.902102,885.711645 C720.752896,886.25417 720.695291,886.82172 720.569222,887.371327 C720.4644,887.827445 720.289224,888.286395 719.715536,888.257121 C719.129753,888.227047 718.918533,888.589239 718.713843,888.997202 L718.662594,889.099946 C718.289107,889.848338 718.282496,889.845033 717.482166,890.311066 C716.437723,888.674992 717.28527,887.016255 719.345354,886.546444 C719.465757,886.011002 719.555942,885.455256 719.717425,884.921703 C720.130102,883.560433 721.061224,882.684083 722.383776,882.212856 C724.18747,881.570231 726.125261,882.418723 726.626707,884.271995 Z M718.63456,869.08133 C718.830511,869.190874 719.030712,869.318833 719.178502,869.483148 C720.666313,871.140942 722.618742,872.170275 724.449822,873.354481 C725.092447,873.770464 725.388499,874.242635 725.429577,874.995276 C725.542426,877.065747 725.639212,877.101531 725.785113,879.170113 L725.81953,879.546416 C725.824357,879.609075 725.82761,879.671716 725.82761,879.734358 C725.828081,880.537521 725.489534,881.039439 724.922928,881.09185 C724.371432,881.142845 723.937979,880.712225 723.775552,879.917088 C723.715586,879.623398 723.702366,879.318847 723.680174,879.018074 C723.551743,877.287566 723.481871,877.590329 723.380826,875.858405 C723.347774,875.285189 723.16646,874.873456 722.66407,874.550963 C721.022803,873.497076 719.278602,872.581536 717.835647,870.850556 C717.527791,871.269844 717.335145,871.595643 717.082533,871.865252 L715.690482,873.352932 C714.992514,874.094845 714.287374,874.829449 713.555886,875.536856 C713.03697,876.038774 712.892013,876.552497 712.908539,877.23384 C712.944424,878.739122 712.931203,880.246293 712.89579,881.751575 C712.883514,882.266242 712.776331,882.794129 712.245611,883.119455 C711.651147,882.864011 711.650675,882.32904 711.594959,881.872923 C711.384842,880.150914 711.22336,878.42324 711.020798,876.700759 C710.930614,875.93348 711.127981,875.313047 711.687504,874.757774 C713.506308,872.952191 715.296309,871.117333 717.102837,869.299001 C717.575952,868.822581 718.054734,868.757893 718.63456,869.08133 Z" id="ochrana_majetku"></path>
            </g>
        </g>
    </g>
</svg>