<?xml version="1.0" encoding="UTF-8"?>
<svg width="40px" height="44px" viewBox="0 0 40 44" version="1.1" xmlns="http://www.w3.org/2000/svg" xmlns:xlink="http://www.w3.org/1999/xlink">
    <title>7CF226D3-086A-4CB3-9209-45E52B004489</title>
    <defs>
        <linearGradient x1="26.8251448%" y1="20.7612708%" x2="50%" y2="100%" id="linearGradient-1">
            <stop stop-color="#0099FF" offset="0%"></stop>
            <stop stop-color="#09083E" offset="100%"></stop>
        </linearGradient>
    </defs>
    <g id="GFS_grafika_final" stroke="none" stroke-width="1" fill="none" fill-rule="evenodd">
        <g id="Služby-grafika" transform="translate(-701.000000, -1338.000000)" fill="url(#linearGradient-1)">
            <g id="Výpis-služeb" transform="translate(0.000000, 679.000000)">
                <path d="M724.306404,659.065704 C724.621799,659.221475 724.871694,659.710806 724.945451,660.093904 C725.014254,660.44838 724.835365,660.862302 724.72528,661.238244 C724.418141,662.292314 724.056509,663.331523 723.782396,664.393849 C723.609562,665.064271 723.449387,665.777626 724.092287,666.510796 C724.581618,666.186044 725.103424,665.889913 725.569086,665.522227 C727.223673,664.21496 728.857895,662.880722 730.503675,661.561896 C731.20382,661.000459 731.676087,660.926702 732.163216,661.278425 C732.635484,661.619691 732.791806,662.221309 732.474208,662.949526 C732.176427,663.630956 731.785072,664.273306 731.413533,664.920059 C730.516335,666.482174 729.582258,668.023373 728.713132,669.600901 C728.380123,670.205821 728.18362,670.8856 727.929322,671.520244 C728.551306,672.150484 729.08247,672.73614 729.668125,673.261248 C729.949945,673.514445 730.313778,673.757735 730.675409,673.82874 C734.953337,674.668143 737.469895,677.578257 739.462996,681.163747 C741.543064,684.905007 741.446189,688.656176 739.569229,692.397987 C736.88479,697.749801 732.387791,700.792018 726.624808,701.787192 C721.481606,702.675033 716.283912,702.450458 711.159976,701.351803 C710.093796,701.122825 709.045781,700.752387 708.030791,700.343419 C703.424257,698.487375 700.708444,694.304671 701.02494,689.360724 C701.315566,684.81859 702.877131,680.702488 705.633676,677.06746 C706.820399,675.502592 708.352792,674.337886 710.08609,673.529307 C710.367909,670.739737 710.132326,668.09603 709.323197,665.494155 C709.065596,664.66521 708.887257,663.781223 708.860286,662.91705 C708.820105,661.610884 709.70024,660.970736 710.952464,661.38741 C711.643252,661.616939 712.299912,662.026457 712.889421,662.46625 C713.661672,663.043098 714.334295,663.750949 715.082327,664.362475 C716.103922,665.197475 716.507936,665.237656 717.497056,664.36908 C719.213291,662.861457 720.865126,661.280077 722.54118,659.727319 C722.734381,659.54843 722.880244,659.255602 723.102067,659.184596 C723.488467,659.06075 723.994861,658.911584 724.306404,659.065704 Z M724.035043,674.69016 C722.277525,674.936202 720.806781,675.210315 719.323927,675.334161 C716.96204,675.532315 714.586391,675.874131 712.226155,675.399662 C711.592612,675.271963 711.133005,675.399662 710.626611,675.711204 C709.023213,676.699774 707.738514,677.996583 706.73178,679.584568 C705.037562,682.258548 703.917441,685.155452 703.397836,688.271977 C702.667969,692.649533 704.638502,696.615919 708.959363,698.168677 C709.86812,698.495081 710.775777,698.877628 711.717559,699.04661 C713.617087,699.386775 715.53533,699.644925 717.455223,699.851886 C720.665321,700.197555 723.882024,700.124899 727.043683,699.476494 C732.312383,698.396004 736.121896,695.429195 738.24765,690.419748 C739.233467,688.094739 739.246678,685.762024 738.025828,683.547651 C737.289355,682.211762 736.351425,680.977151 735.417899,679.762356 C734.643446,678.754522 733.746248,677.840261 732.899139,676.88857 C732.266697,676.177968 731.568754,675.55103 730.674859,675.154722 C730.759624,675.467915 730.926404,675.709003 731.067314,675.964952 C731.703609,677.118649 732.376783,678.255284 732.950879,679.439805 C733.445714,680.462501 733.549195,681.55345 733.082982,682.637793 C732.569983,683.832223 731.570405,684.310545 730.300017,683.980288 C729.965907,683.89332 729.633999,683.798647 729.161181,683.668746 C729.313099,685.3448 729.45621,686.924529 729.598771,688.504258 L729.402268,688.58462 L729.402268,688.58462 L727.105331,684.421181 C727.020565,684.442648 726.93635,684.463564 726.852134,684.485031 C726.950661,686.205669 726.189419,687.662653 725.692382,689.2011 C725.592204,689.194495 725.491476,689.18789 725.391298,689.181284 C725.123239,687.707238 724.855731,686.233191 724.581067,684.720064 C722.90061,684.982618 721.738656,684.269813 720.992826,682.842002 C720.428637,681.762062 720.3813,680.599558 720.930627,679.533378 C721.591141,678.251981 722.398069,677.045993 723.160963,675.819088 C723.373978,675.476722 723.654697,675.176739 724.035043,674.69016 Z M714.002435,678.194186 L714.050054,678.392395 L714.050054,678.392395 C714.099042,678.60321 714.136471,678.816225 714.187111,679.065019 C715.680423,679.55435 716.573768,680.517599 716.585327,682.145766 C716.586427,682.320802 716.626058,682.526662 716.55065,682.66537 C716.398181,682.945538 716.17856,683.189928 715.987011,683.44918 C715.783353,683.249374 715.523,683.082595 715.388696,682.844259 C715.101372,682.332911 714.988534,681.699368 714.239952,681.391679 L714.239952,686.068668 C715.256042,686.754501 716.289747,687.341258 717.191899,688.088189 C718.56962,689.228676 718.996753,690.78804 718.4788,692.205392 C717.923418,693.726776 716.425702,694.715345 714.657727,694.716996 C714.267473,694.716996 713.87722,694.681769 713.439079,694.660853 C713.258538,695.196419 713.084603,695.713822 712.885348,696.306083 C711.698625,695.907573 711.504874,695.064867 711.548358,694.035016 C709.466638,692.758573 708.195699,690.892621 707.680498,688.33423 C709.368111,689.01456 710.531166,690.176514 711.585236,691.48213 L711.847791,691.354981 L711.847791,691.354981 L711.847791,687.02256 C709.141885,685.17147 708.912907,682.319701 711.39754,679.926989 C711.865404,679.476189 712.221531,679.061716 712.246851,678.386341 C712.266116,677.865636 712.509956,677.42089 713.087355,677.368599 C713.709133,677.311767 713.885467,677.734092 714.002435,678.194186 Z M714.078676,687.621426 L714.078676,692.509779 C714.567457,692.476203 714.998992,692.505926 715.400255,692.409051 C716.88476,692.050722 717.385099,690.748409 716.498909,689.50334 C715.945179,688.725585 715.238429,688.096996 714.078676,687.621426 Z M711.968335,682.178791 C711.278648,682.673626 711.184525,683.341296 711.187827,684.026029 C711.190029,684.542881 711.231862,685.080649 711.968335,685.333846 L711.968335,682.178791 Z M725.119386,677.223781 C723.888078,678.162261 723.051978,679.358892 722.652367,680.80762 C722.422838,681.639867 722.738784,682.34992 723.740013,682.850809 C725.042877,681.115859 724.89316,679.132666 725.119386,677.223781 Z M727.940881,675.928073 C727.420176,678.731955 728.742855,681.420246 731.012271,682.079659 C730.994701,680.612746 730.328965,679.53853 729.581126,678.497035 L729.257248,678.051634 C728.768841,677.383389 728.279923,676.707414 727.940881,675.928073 Z M721.535548,663.63646 C720.33011,664.634937 719.331633,665.487 718.306185,666.304386 C717.19432,667.190025 715.970718,667.266534 714.731154,666.619231 C714.113574,666.29668 713.55654,665.857988 712.974187,665.469386 C712.70778,665.291598 712.445776,665.107755 711.977362,664.786305 C712.668149,667.140486 713.082071,669.280001 712.588887,671.564829 C714.750969,672.315062 716.75728,672.112505 718.765243,671.930313 C719.285397,671.883188 719.803764,671.81657 720.320566,671.744414 L721.352149,671.596853 C722.724988,671.401286 724.087757,671.232497 725.444689,671.355115 C726.083737,669.828778 726.698014,668.360235 727.367335,666.76014 C726.561508,667.278093 725.931818,667.755315 725.23993,668.110891 C724.112653,668.691043 723.097113,668.432892 722.324312,667.441571 C721.764526,666.723262 721.518485,665.894867 721.534447,664.985009 L721.537013,664.785275 L721.537013,664.785275 L721.537681,664.36853 C721.537062,664.150147 721.535548,663.9125 721.535548,663.63646 Z" id="investice"></path>
            </g>
        </g>
    </g>
</svg>