<?xml version="1.0" encoding="UTF-8"?>
<svg width="30px" height="43px" viewBox="0 0 30 43" version="1.1" xmlns="http://www.w3.org/2000/svg" xmlns:xlink="http://www.w3.org/1999/xlink">
    <title>87F57446-E5ED-493A-90A8-41AF5ABAEE24</title>
    <defs>
        <linearGradient x1="36.1612448%" y1="20.7612708%" x2="50%" y2="100%" id="linearGradient-1">
            <stop stop-color="#0099FF" offset="0%"></stop>
            <stop stop-color="#09083E" offset="100%"></stop>
        </linearGradient>
    </defs>
    <g id="GFS_grafika_final" stroke="none" stroke-width="1" fill="none" fill-rule="evenodd">
        <g id="Služby-grafika" transform="translate(-706.000000, -972.000000)" fill="url(#linearGradient-1)">
            <g id="Výpis-služeb" transform="translate(0.000000, 679.000000)">
                <g id="zivotni_pojisteni" transform="translate(705.999834, 292.999984)">
                    <path d="M16.7520345,0.342958391 C18.9694231,1.57747747 21.1949294,2.79763441 23.4223091,4.01466915 C24.5594154,4.63598755 25.6971462,5.25605707 26.8511125,5.84365568 C28.3435255,6.6035999 29.2239868,7.77442603 29.357617,9.45979123 C29.60552,12.5894875 29.8409341,15.7204327 30.0001664,17.7966977 C29.9701933,21.6001655 30.0445017,24.3445819 29.2995441,27.0271788 C28.7575296,28.9779312 27.8689506,30.7301116 26.5551276,32.2830954 C24.4214141,34.8045865 22.0735174,37.0956591 19.4802155,39.141951 C18.7789687,39.6952053 18.1026996,40.2952928 17.4894989,40.944711 C16.1581915,42.3540734 14.8162687,42.4302552 13.3525799,41.1532741 C12.0012904,39.9743303 10.6437565,38.8010064 9.24813179,37.67514 C8.20156933,36.8302718 7.12253597,36.0172502 6.00291396,35.2735414 C2.46483349,32.9225225 0.781341622,29.5143257 0.215598433,25.4179953 C-0.245863174,22.0747403 0.153778813,18.7445986 0.307391202,15.4125835 C0.410423902,13.1720906 0.700788784,10.9403399 0.80007484,8.70047145 C0.850030088,7.57647836 1.32210719,6.93392898 2.35742971,6.62920196 L3.49765825,6.27389526 L3.49765825,6.27389526 C7.55839551,5.07871594 11.2688216,3.20102304 14.6045833,0.588363549 C15.538122,-0.1428564 15.8597089,-0.154096331 16.7520345,0.342958391 Z M15.4094872,2.03207023 C11.8870178,4.85141956 7.91557554,7.16746977 3.3983722,8.32518265 C3.23726652,13.1677195 3.03369888,17.8510241 2.95377049,22.5368264 C2.9294173,23.9674198 3.18044243,25.4142487 3.4183543,26.8348511 C3.80613191,29.1540235 5.04377319,30.9692723 6.89773735,32.4048613 C8.8684719,33.9309941 10.7923734,35.5183221 12.7581124,37.0519483 C13.6104739,37.7169775 14.5152883,38.3145672 15.3713964,38.9246456 C16.857565,37.737584 18.2007367,36.6298264 19.5819994,35.5707751 C21.578336,34.0396468 23.2000082,32.1494651 24.811065,30.2430479 C26.3571799,28.4146858 27.0971421,26.2784745 27.182066,23.9218356 C27.2532522,21.9292457 27.271361,19.9316602 27.2170346,17.9390702 C27.129613,14.7044679 26.9641362,11.4717389 26.8267593,8.12223945 C23.0913556,6.12964948 19.3216076,4.11895073 15.4094872,2.03207023 Z M19.4221426,12.4348136 C20.9139312,13.050512 21.9105384,14.1089389 22.067273,15.753091 C22.140957,16.5317684 22.0722685,17.3491612 21.9186561,18.118472 C21.0962678,22.23416 18.865766,25.6523479 16.3936056,28.9225433 C15.4263471,30.2020221 14.3616759,30.1757956 13.5061923,28.8332483 C11.4455383,25.6017682 9.50789908,22.2903597 8.11726985,18.7035728 C7.82003612,17.9361353 7.71138346,17.0525519 7.70822899,16.2220459 C7.69951909,13.902249 9.46855932,12.6770966 11.659097,13.4838738 C12.4852319,13.7886008 13.2333117,14.3056377 14.1044064,14.7720948 C14.6358053,14.2113471 15.0978914,13.6125086 15.6680057,13.1460515 C16.7707678,12.2431103 18.0215223,11.8559572 19.4221426,12.4348136 Z M16.8469495,15.5751254 C16.269342,16.4874331 15.2945902,17.1124982 15.0054742,18.2496045 C14.9330391,18.5331006 14.42412,18.8877828 14.1256374,18.8790407 C13.8352725,18.8702985 13.498699,18.4787742 13.2907603,18.1802916 C13.0684594,17.8612025 13.0047665,17.4365829 12.8161854,17.0887694 C12.1898715,15.9335543 11.1595445,15.421513 9.85071697,15.6232073 C9.55473213,16.678512 9.78390183,17.7000968 10.2996898,18.62302 C11.8270715,21.356821 13.4119017,24.058151 15.0729138,26.9436911 C17.1404366,23.8914254 18.9300834,20.9240836 19.6119725,17.4166008 C19.6681722,17.1256114 19.6794121,16.8196355 19.6644255,16.5230262 C19.6244613,15.7493443 19.2241949,15.2042077 18.5104593,14.9238339 C17.7736194,14.6340934 17.2103739,15.0000156 16.8469495,15.5751254 Z"></path>
                </g>
            </g>
        </g>
    </g>
</svg>