<?xml version="1.0" encoding="UTF-8"?>
<svg width="30px" height="43px" viewBox="0 0 30 43" version="1.1" xmlns="http://www.w3.org/2000/svg" xmlns:xlink="http://www.w3.org/1999/xlink">
    <title>184410C9-F342-435D-9CF8-A5E2FD251333</title>
    <defs>
        <linearGradient x1="36.1612448%" y1="20.7612708%" x2="50%" y2="100%" id="linearGradient-1">
            <stop stop-color="#0099FF" offset="0%"></stop>
            <stop stop-color="#09083E" offset="100%"></stop>
        </linearGradient>
    </defs>
    <g id="GFS_grafika_final" stroke="none" stroke-width="1" fill="none" fill-rule="evenodd">
        <g id="Služby-grafika" transform="translate(-705.000000, -1734.000000)" fill="url(#linearGradient-1)">
            <g id="Výpis-služeb" transform="translate(0.000000, 679.000000)">
                <path d="M721.752035,1055.34296 C723.969423,1056.57748 726.194929,1057.79763 728.422309,1059.01467 C729.559415,1059.63599 730.697146,1060.25606 731.851112,1060.84366 C733.343525,1061.6036 734.223987,1062.77443 734.357617,1064.45979 C734.60552,1067.58949 734.840934,1070.72043 735.000166,1072.7967 C734.970193,1076.60017 735.044502,1079.34458 734.299544,1082.02718 C733.75753,1083.97793 732.868951,1085.73011 731.555128,1087.2831 C729.421414,1089.80459 727.073517,1092.09566 724.480216,1094.14195 C723.778969,1094.69521 723.1027,1095.29529 722.489499,1095.94471 C721.158192,1097.35407 719.816269,1097.43026 718.35258,1096.15327 C717.00129,1094.97433 715.643757,1093.80101 714.248132,1092.67514 C713.201569,1091.83027 712.122536,1091.01725 711.002914,1090.27354 C707.464833,1087.92252 705.781342,1084.51433 705.215598,1080.418 C704.754137,1077.07474 705.153779,1073.7446 705.307391,1070.41258 C705.410424,1068.17209 705.700789,1065.94034 705.800075,1063.70047 C705.85003,1062.57648 706.322107,1061.93393 707.35743,1061.6292 L708.497658,1061.2739 L708.497658,1061.2739 C712.558396,1060.07872 716.268822,1058.20102 719.604583,1055.58836 C720.538122,1054.85714 720.859709,1054.8459 721.752035,1055.34296 Z M720.409487,1057.03207 C716.887018,1059.85142 712.915576,1062.16747 708.398372,1063.32518 C708.237267,1068.16772 708.033699,1072.85102 707.95377,1077.53683 C707.929417,1078.96742 708.180442,1080.41425 708.418354,1081.83485 C708.806132,1084.15402 710.043773,1085.96927 711.897737,1087.40486 C713.868472,1088.93099 715.792373,1090.51832 717.758112,1092.05195 C718.610474,1092.71698 719.515288,1093.31457 720.371396,1093.92465 C721.857565,1092.73758 723.200737,1091.62983 724.581999,1090.57078 C726.578336,1089.03965 728.200008,1087.14947 729.811065,1085.24305 C731.35718,1083.41469 732.097142,1081.27847 732.182066,1078.92184 C732.253252,1076.92925 732.271361,1074.93166 732.217035,1072.93907 C732.129613,1069.70447 731.964136,1066.47174 731.826759,1063.12224 C728.091356,1061.12965 724.321608,1059.11895 720.409487,1057.03207 Z M716.372412,1076.71546 C718.657774,1076.90006 719.470162,1077.57866 719.331226,1079.18414 C719.201296,1080.67448 717.97982,1081.66182 716.451528,1081.51067 C715.008142,1081.36852 714.159734,1080.32907 714.292881,1078.86703 C714.418952,1077.48539 715.250636,1076.62477 716.372412,1076.71546 Z M723.295072,1076.15464 C723.998112,1076.21317 724.719162,1076.32059 725.379106,1076.55472 C726.105945,1076.81265 726.493807,1077.42757 726.520822,1078.41363 C726.477727,1079.5116 725.713581,1080.28733 724.646478,1080.81541 C723.614109,1081.32677 722.590746,1081.18076 721.811163,1080.40375 C721.027077,1079.62224 720.717688,1078.68764 721.093972,1077.59674 C721.470256,1076.50776 722.107687,1076.05622 723.295072,1076.15464 Z M716.971894,1077.78642 C715.958178,1078.72552 715.77679,1079.14683 716.163366,1079.60159 C716.512634,1080.01196 716.95517,1080.05828 717.401565,1079.78877 C717.961167,1079.45043 717.870473,1079.02591 716.971894,1077.78642 Z M723.862392,1077.63404 C723.316298,1078.00904 723.159996,1078.3686 723.59224,1078.95393 C724.323581,1078.62653 724.345451,1078.23674 723.862392,1077.63404 Z M724.10167,1070.09505 C724.562216,1071.79444 724.990601,1072.82102 727.099078,1072.92072 C729.218489,1073.02042 730.399442,1075.60873 729.569044,1077.62201 C728.688475,1077.54161 728.249799,1076.90675 727.979003,1076.19407 C727.502377,1074.93914 726.7839,1074.29271 725.318643,1074.43936 C724.051499,1074.56607 723.217886,1073.73889 722.771491,1072.58882 C722.512916,1071.9218 722.386845,1071.20332 722.124411,1070.53823 C721.523643,1069.0183 720.274509,1068.51015 718.77066,1069.10449 C717.408319,1069.64287 716.673761,1070.71061 716.303266,1072.05623 C716.221963,1072.35185 716.160626,1072.65293 716.105298,1072.95572 L715.943392,1073.86546 C715.914761,1074.01669 715.884144,1074.16741 715.849796,1074.31715 C715.707001,1074.9385 715.468366,1075.56371 714.686853,1075.52383 C713.822365,1075.47945 713.556715,1076.06221 713.252472,1076.67198 C712.743684,1077.69148 712.734679,1077.68698 711.644421,1078.32184 C710.221617,1076.09308 711.376198,1073.83345 714.182568,1073.19344 C714.34659,1072.46403 714.469445,1071.70696 714.689426,1070.98012 C715.251601,1069.12572 716.520031,1067.9319 718.321692,1067.28997 C720.778794,1066.41454 723.41857,1067.57041 724.10167,1070.09505 Z" id="pojisteni_vozidel"></path>
            </g>
        </g>
    </g>
</svg>